<svg width="106" height="68" fill="none" xmlns="http://www.w3.org/2000/svg"><path fill-rule="evenodd" clip-rule="evenodd" d="M50.114 6.26h-.137c-.21-.012-.42-.017-.63-.022h-.455c-.397 0-.802.01-1.204.03a.625.625 0 0 0-.091 0A28.275 28.275 0 0 0 37.08 8.951l-.432.208v22.142l1.012-.344c.888-.305 1.834-.58 2.813-.834a34.33 34.33 0 0 1 8.095-1.075v2.909a24.28 24.28 0 0 0-1.065.03h-.084a32.36 32.36 0 0 0-6.228.956 31.635 31.635 0 0 0-7.42 2.892V7.438a29.727 29.727 0 0 1 7.785-3.166 29.793 29.793 0 0 1 7.336-.946h.427c.511.013 1.01.036 1.478.071 1.233.087 2.456.282 3.655.583v2.863a22.623 22.623 0 0 0-3.541-.534l-.073-.006c-.247-.021-.494-.042-.724-.042Zm5.039 2.927c.635.049 1.293.072 1.958.072a31.467 31.467 0 0 0 7.713-.99 31.777 31.777 0 0 0 7.417-2.893v27.89a29.818 29.818 0 0 1-7.786 3.166 29.943 29.943 0 0 1-7.337.944 22.405 22.405 0 0 1-5.565-.657V8.65c.43.099.873.19 1.323.266.739.125 1.518.216 2.277.272Zm14.194.217-1.012.34a44.56 44.56 0 0 1-2.813.842 34.263 34.263 0 0 1-8.406 1.078c-.66 0-1.267-.018-1.854-.056l-.807-.053V34.332l.693.06c.642.057 1.305.085 1.973.085a26.884 26.884 0 0 0 6.62-.857 27.763 27.763 0 0 0 5.174-1.86l.432-.208V9.404Z" fill="#AFB1B8"/><path d="M35.737 45.538a1.492 1.492 0 0 0-1.126-.455 1.674 1.674 0 0 0-.65.122 1.464 1.464 0 0 0-.832.842c-.08.2-.119.413-.116.628v3.794c-.01.267.042.533.149.778.09.195.219.368.38.509.151.127.329.22.52.27.185.051.376.078.567.078.211.002.42-.043.612-.132a1.601 1.601 0 0 0 .96-1.465v-.424h-.993v.338a.88.88 0 0 1-.058.338.607.607 0 0 1-.144.214.697.697 0 0 1-.415.145.504.504 0 0 1-.465-.204.898.898 0 0 1-.132-.508v-3.538c-.006-.196.036-.39.122-.567a.507.507 0 0 1 .485-.229.526.526 0 0 1 .443.214.806.806 0 0 1 .164.509v.328h.982v-.387a1.791 1.791 0 0 0-.121-.664 1.563 1.563 0 0 0-.332-.534ZM41.629 45.495a1.765 1.765 0 0 0-1.128-.417c-.202.001-.403.037-.592.107a1.558 1.558 0 0 0-.908.842c-.1.231-.15.482-.145.734v3.64c-.007.255.043.51.145.744.09.196.22.37.384.51.152.14.33.249.524.32a1.711 1.711 0 0 0 1.72-.32c.158-.143.285-.316.374-.51.102-.234.151-.489.145-.745v-3.639a1.77 1.77 0 0 0-.145-.734 1.64 1.64 0 0 0-.374-.532Zm-.463 4.905a.656.656 0 0 1-.197.527.726.726 0 0 1-.934 0 .65.65 0 0 1-.197-.527v-3.639a.653.653 0 0 1 .197-.526.726.726 0 0 1 .934 0 .652.652 0 0 1 .197.526v3.64ZM49.367 52.026v-6.89h-.953l-1.253 3.647h-.017l-1.263-3.646h-.943v6.889h.984v-4.191h.018l.963 2.962h.491l.971-2.962h.018v4.19h.984ZM54.958 45.62c-.151-.17-.343-.3-.556-.377a2.178 2.178 0 0 0-.714-.106h-1.462v6.888h.982v-2.69h.505c.307.014.611-.05.886-.188a1.43 1.43 0 0 0 .539-.527 1.65 1.65 0 0 0 .225-.6c.038-.259.056-.52.053-.783.01-.33-.023-.662-.096-.984a1.467 1.467 0 0 0-.362-.633Zm-.506 2.1a.866.866 0 0 1-.091.359.553.553 0 0 1-.253.241 1.009 1.009 0 0 1-.463.087h-.448v-2.342h.506a.942.942 0 0 1 .443.086.555.555 0 0 1 .23.255c.054.12.083.251.086.383v.458c0 .16.01.326 0 .473h-.01ZM59.608 45.137h-.805l-1.518 6.889h.982l.288-1.48h1.339l.288 1.48h.981l-1.555-6.89Zm-.906 4.47.483-2.497h.018l.48 2.497h-.981ZM65.95 49.287h-.018l-1.482-4.15h-.944v6.889h.981v-4.143h.02l1.5 4.142h.924v-6.888h-.981v4.15ZM71.948 45.137l-.79 2.738h-.02l-.79-2.738H69.31l1.348 3.977v2.912h.982v-2.912l1.348-3.977h-1.04ZM33 53.97h.473v1.328h.321v-1.327h.47v-.272H33v.272ZM36.977 53.699l-.62 1.599h.341l.132-.364h.638l.136.364h.35l-.636-1.6h-.341Zm-.05.966.217-.593.217.593h-.435ZM40.908 54.708h.37v.206a.613.613 0 0 1-.38.135.402.402 0 0 1-.34-.153.67.67 0 0 1-.118-.417c0-.356.154-.534.46-.534a.337.337 0 0 1 .362.255l.316-.061c-.068-.313-.293-.47-.678-.47a.804.804 0 0 0-.559.205.78.78 0 0 0-.23.615.872.872 0 0 0 .205.6.776.776 0 0 0 .607.235.962.962 0 0 0 .678-.255v-.63h-.693v.27ZM44.923 53.699h-.324v1.599h1.12v-.272h-.796v-1.328ZM48.318 53.699h-.324v1.599h.324v-1.6ZM51.636 54.767l-.655-1.069h-.313v1.6h.3v-1.045l.643 1.045h.322v-1.6h-.297v1.069ZM54.637 54.594h.797v-.273h-.797v-.35h.857v-.272h-1.181v1.599h1.214v-.272h-.89v-.432ZM61.912 54.33h-.63v-.631h-.32v1.599h.32v-.7h.63v.7h.322v-1.6h-.322v.631ZM64.93 54.594h.8v-.273h-.8v-.35h.86v-.272H64.61v1.599h1.212v-.272h-.89v-.432ZM69.023 54.594c.279-.044.42-.191.42-.445a.383.383 0 0 0-.157-.356.904.904 0 0 0-.468-.094h-.678v1.599h.322v-.669h.063a.428.428 0 0 1 .2.036c.047.029.086.069.114.117l.349.508h.384l-.195-.312a1.114 1.114 0 0 0-.354-.384Zm-.324-.222h-.237v-.401h.253a.84.84 0 0 1 .326.038.208.208 0 0 1 .046.255.208.208 0 0 1-.061.07.91.91 0 0 1-.327.038ZM72.11 54.594h.796v-.273h-.796v-.35h.86v-.272h-1.184v1.599H73v-.272h-.89v-.432Z" fill="#AFB1B8"/></svg>