<svg width="106" height="68" fill="none" xmlns="http://www.w3.org/2000/svg"><path d="M53.425 27.734a2.948 2.948 0 0 1-.605-1.988v-2.883c0-.884.2-1.556.602-2.015.4-.46 1.089-.689 2.065-.687.917 0 1.569.196 1.953.587.42.499.625 1.109.578 1.724v.678h-1.64v-.686c.005-.225-.01-.45-.048-.672a.65.65 0 0 0-.235-.399.948.948 0 0 0-.594-.155 1.005 1.005 0 0 0-.625.164.769.769 0 0 0-.272.44 3.33 3.33 0 0 0-.065.713v3.499c-.026.337.047.675.21.982a.77.77 0 0 0 .328.238.9.9 0 0 0 .424.055.892.892 0 0 0 .58-.158.704.704 0 0 0 .245-.425c.038-.232.056-.467.051-.701v-.71h1.641v.648a2.64 2.64 0 0 1-.567 1.813c-.377.428-1.02.642-1.964.642s-1.658-.229-2.062-.704ZM60.257 27.764c-.415-.45-.622-1.103-.622-1.968v-3.033c0-.857.207-1.505.622-1.945.414-.44 1.107-.659 2.079-.657.965 0 1.654.22 2.069.657.414.44.625 1.088.625 1.945v3.032c0 .857-.21 1.514-.632 1.966-.421.451-1.107.677-2.062.677-.955 0-1.661-.229-2.08-.674Zm2.843-.728c.149-.28.216-.589.197-.897v-3.713a1.65 1.65 0 0 0-.193-.88.775.775 0 0 0-.335-.242.906.906 0 0 0-.433-.052.918.918 0 0 0-.434.052.787.787 0 0 0-.337.242c-.15.274-.217.577-.197.88v3.73c-.02.309.047.617.197.898.095.094.214.17.346.222a1.156 1.156 0 0 0 .843 0c.133-.052.25-.128.346-.222v-.018ZM67.004 20.25h1.766l1.328 5.595 1.36-5.595h1.718l.174 8.076h-1.271l-.136-5.613-1.311 5.613h-1.02l-1.358-5.633-.126 5.633h-1.284l.16-8.076ZM75.33 20.25h2.752c1.585 0 2.378.764 2.378 2.293 0 1.464-.835 2.196-2.504 2.194h-.937v3.59H75.32l.01-8.077Zm2.351 3.451c.168.019.338.005.5-.038.16-.045.31-.118.434-.217.195-.273.281-.593.245-.912a2.526 2.526 0 0 0-.082-.733.594.594 0 0 0-.125-.222.703.703 0 0 0-.214-.162 1.757 1.757 0 0 0-.758-.13h-.659v2.414h.66ZM82.91 20.25h1.824l1.872 8.076h-1.584l-.37-1.862h-1.627l-.38 1.862h-1.607l1.871-8.076Zm1.559 5.279-.636-3.39-.635 3.39h1.27ZM88.117 20.25h1.19l2.275 4.607V20.25h1.41v8.076h-1.131l-2.29-4.81v4.81h-1.457l.003-8.076ZM96.294 25.247l-1.892-4.986h1.594l1.155 3.203 1.083-3.203h1.56l-1.869 4.986v3.08h-1.63v-3.08ZM56.048 31.858v.422h-1.386v3.282h-.581V32.28h-1.393v-.422h3.36ZM60.393 35.562h-.449a.2.2 0 0 1-.126-.035.194.194 0 0 1-.074-.085l-.401-.88H57.42l-.4.88a.242.242 0 0 1-.062.1.206.206 0 0 1-.126.035h-.448l1.699-3.704h.59l1.72 3.69Zm-2.813-1.375h1.603l-.68-1.508a2.694 2.694 0 0 1-.125-.349c-.024.07-.044.138-.064.197l-.062.155-.672 1.505ZM63.321 35.198c.107.005.213.005.32 0 .091-.008.182-.023.271-.044.083-.017.165-.04.245-.067.075-.027.15-.059.227-.091v-.833h-.679a.142.142 0 0 1-.05-.006.128.128 0 0 1-.042-.023.088.088 0 0 1-.026-.03.074.074 0 0 1-.008-.038v-.284h1.318v1.42a2.566 2.566 0 0 1-.716.302c-.14.035-.281.06-.425.076a5.16 5.16 0 0 1-.496.023 2.594 2.594 0 0 1-.856-.138 2.09 2.09 0 0 1-.68-.387 1.79 1.79 0 0 1-.438-.587 1.851 1.851 0 0 1-.156-.768 1.92 1.92 0 0 1 .153-.774c.097-.22.247-.42.438-.587.194-.167.425-.297.68-.384.29-.095.6-.142.91-.138.158 0 .316.01.472.032.138.02.274.051.404.094.12.039.233.088.34.147.104.058.203.122.296.193l-.163.23a.143.143 0 0 1-.055.05.172.172 0 0 1-.078.02.224.224 0 0 1-.105-.03 2.08 2.08 0 0 1-.167-.088 1.504 1.504 0 0 0-.227-.1 2.126 2.126 0 0 0-.313-.082 2.604 2.604 0 0 0-.431-.032 2.009 2.009 0 0 0-.656.103c-.189.065-.36.165-.5.293a1.29 1.29 0 0 0-.315.46 1.732 1.732 0 0 0 0 1.235c.074.175.19.333.34.467.139.127.308.227.495.293.216.064.445.09.673.073ZM68.736 35.14h1.855v.422H68.17v-3.704h.58l-.013 3.282ZM72.52 35.562h-.58v-3.704h.58v3.704ZM74.681 31.875a.28.28 0 0 1 .089.068l2.483 2.792a.881.881 0 0 1 0-.132V31.843h.506v3.72h-.292a.274.274 0 0 1-.126-.021.33.33 0 0 1-.091-.07l-2.48-2.79v2.88h-.486v-3.704h.302c.033 0 .066.006.095.017ZM82.036 31.858v.407h-2.058v1.223h1.668v.393h-1.668v1.264h2.058v.408H79.38v-3.695h2.656ZM21.162 8.982l25.795 6.323v22.158l-25.795-6.32V8.981Zm-1.655-1.89V32.22l29.1 7.136V14.23l-29.1-7.138Z" fill="#AFB1B8"/><path d="M35.104 51.018 6 43.877V18.753l29.104 7.139v25.126Z" fill="#AFB1B8"/><path d="m19.99 8.697 25.458 6.244-10.827 9.35L9.16 18.044l10.83-9.347Zm-.483-1.604L6 18.753l29.104 7.14L48.608 14.23l-29.1-7.138ZM36.742 49.605l11.866-10.247-11.866-2.913v13.16Z" fill="#AFB1B8"/></svg>