<svg width="106" height="68" fill="none" xmlns="http://www.w3.org/2000/svg"><path d="M26.757 45.061c.244.276.373.622.367.977a1.43 1.43 0 0 1-.131.677 1.556 1.556 0 0 1-.438.557 2.626 2.626 0 0 1-1.651.451H22v-6.191h2.844a2.593 2.593 0 0 1 1.576.41c.184.142.33.32.425.52.096.202.139.42.127.64.016.34-.1.677-.33.946-.221.246-.526.417-.866.484.385.064.733.252.98.53Zm-3.406-.934h1.216c.276.018.55-.055.773-.206a.738.738 0 0 0 .207-.275.68.68 0 0 0 .054-.33.702.702 0 0 0-.055-.329.76.76 0 0 0-.203-.276 1.255 1.255 0 0 0-.796-.209H23.35v1.625ZM25.46 46.5a.776.776 0 0 0 .224-.284.712.712 0 0 0 .063-.345.723.723 0 0 0-.066-.35.788.788 0 0 0-.228-.285 1.34 1.34 0 0 0-.826-.224h-1.275v1.703h1.292c.29.015.578-.06.816-.215ZM32.57 47.723l-1.581-2.42h-.595v2.42h-1.361v-6.191h2.577a2.699 2.699 0 0 1 1.793.526c.36.336.578.779.613 1.248.035.47-.114.936-.421 1.314a2.147 2.147 0 0 1-1.229.629l1.685 2.474h-1.48Zm-2.176-3.264h1.113c.773 0 1.16-.312 1.16-.937a.852.852 0 0 0-.063-.375.916.916 0 0 0-.221-.32 1.282 1.282 0 0 0-.876-.252h-1.126l.013 1.884ZM40.01 46.477h-2.712l-.479 1.246h-1.427l2.49-6.122h1.544l2.48 6.122H40.48l-.469-1.246Zm-.363-.938-.991-2.613-.991 2.613h1.982ZM49.322 47.723h-1.35l-3.03-4.21v4.21h-1.348v-6.191h1.348l3.03 4.234v-4.234h1.35v6.191ZM57.033 46.24c-.28.468-.705.849-1.223 1.093a4.287 4.287 0 0 1-1.9.39h-2.404v-6.191h2.405a4.376 4.376 0 0 1 1.9.38c.517.24.943.616 1.222 1.08.278.504.423 1.06.423 1.625 0 .564-.145 1.12-.423 1.624Zm-1.546-.147c.385-.412.597-.936.597-1.478a2.16 2.16 0 0 0-.597-1.477 2.49 2.49 0 0 0-1.692-.527h-.938v4.008h.938a2.488 2.488 0 0 0 1.692-.526ZM40.856 7.093s17.438 6.028 17.069 14.751v14.754s-17.426-6.03-17.063-14.754l-.006-14.751ZM73.46 33.144c3.294-2.075 7.103-3.36 11.08-3.738v-4.619c-4.582 1.617-8.47 4.549-11.08 8.357Z" fill="#AFB1B8"/><path d="M71.482 34.536c2.695-4.97 7.368-8.805 13.058-10.717V10.511S59.705 19.098 60.23 31.52v21.006s1.107-.384 2.848-1.104c0-.671 0-1.349.08-2.03.513-5.766 3.507-11.11 8.324-14.856Z" fill="#AFB1B8"/><path d="M69.12 42.34a20.05 20.05 0 0 1 .868-4.302c-2.998 3.235-4.815 7.25-5.192 11.479-.037.399-.057.798-.067 1.21a74.703 74.703 0 0 0 4.777-2.305c-.44-2.001-.57-4.049-.386-6.083ZM70.108 42.415a19.051 19.051 0 0 0 .307 5.508C77.2 44.205 84.825 38.46 84.53 31.52v-.605c-4.848.497-9.383 2.437-12.91 5.523a19.259 19.259 0 0 0-1.513 5.977Z" fill="#AFB1B8"/></svg>