<svg width="106" height="68" fill="none" xmlns="http://www.w3.org/2000/svg"><path d="M36.406 49.428c.016 0 .032.003.046.009a.122.122 0 0 1 .039.024l.218.208c-.17.169-.379.304-.614.396-.275.1-.571.149-.87.142-.28.005-.558-.04-.817-.133a1.794 1.794 0 0 1-.616-.374 1.673 1.673 0 0 1-.398-.578 1.925 1.925 0 0 1-.14-.742 1.725 1.725 0 0 1 .572-1.322c.187-.163.41-.291.655-.377.269-.09.555-.135.843-.132.267-.006.534.035.782.12.216.082.415.195.587.335l-.183.223a.177.177 0 0 1-.046.04.124.124 0 0 1-.074.016.177.177 0 0 1-.08-.023l-.097-.06-.137-.075a1.555 1.555 0 0 0-.43-.133 1.902 1.902 0 0 0-.325-.024 1.764 1.764 0 0 0-.605.1c-.18.063-.341.158-.474.28-.136.128-.241.28-.309.445a1.498 1.498 0 0 0-.111.587c-.004.203.034.405.111.597a1.3 1.3 0 0 0 .303.443c.125.12.28.215.453.275.178.064.369.096.561.095.111.002.223-.005.333-.019a1.316 1.316 0 0 0 .72-.306.171.171 0 0 1 .103-.038ZM42.704 48.38c.004.251-.046.501-.147.737a1.593 1.593 0 0 1-.41.572 1.892 1.892 0 0 1-.645.375 2.655 2.655 0 0 1-1.658 0 1.912 1.912 0 0 1-.64-.376 1.676 1.676 0 0 1-.415-.579 1.922 1.922 0 0 1 0-1.475c.093-.216.234-.413.415-.58.182-.159.4-.282.64-.363a2.61 2.61 0 0 1 1.658 0c.242.085.461.213.643.376.18.165.32.36.412.571.101.238.151.489.147.742Zm-.572 0a1.566 1.566 0 0 0-.104-.592 1.219 1.219 0 0 0-.752-.723 1.918 1.918 0 0 0-1.205 0 1.298 1.298 0 0 0-.461.28 1.191 1.191 0 0 0-.294.443 1.738 1.738 0 0 0 0 1.184 1.209 1.209 0 0 0 .755.72c.388.127.816.127 1.205 0 .175-.061.333-.156.46-.277.131-.129.23-.28.292-.443.074-.19.108-.391.104-.592ZM47.001 49l.058.133c.021-.047.04-.09.062-.132.021-.045.045-.088.071-.13l1.393-2.201c.028-.038.052-.062.08-.069a.373.373 0 0 1 .114-.012h.412v3.58h-.488V47.426a.972.972 0 0 1 0-.124L47.3 49.534a.204.204 0 0 1-.082.081.247.247 0 0 1-.12.03h-.079a.243.243 0 0 1-.12-.03.2.2 0 0 1-.081-.081l-1.443-2.246V50.161h-.471V46.59h.411a.374.374 0 0 1 .115.012c.034.015.06.039.076.069l1.423 2.203c.028.04.052.083.071.128ZM52.244 48.823v1.34H51.7V46.59h1.216c.23-.004.459.023.679.078.176.044.34.12.48.223a.922.922 0 0 1 .273.35c.064.146.095.302.092.458a.99.99 0 0 1-.395.815c-.14.107-.304.188-.483.236a2.307 2.307 0 0 1-.657.083l-.66-.01Zm0-.384h.66c.143.002.286-.017.423-.054a.922.922 0 0 0 .305-.154.687.687 0 0 0 .25-.538.604.604 0 0 0-.054-.291.69.69 0 0 0-.19-.244 1.172 1.172 0 0 0-.734-.192h-.66v1.473ZM59.573 50.168h-.43a.205.205 0 0 1-.12-.033.225.225 0 0 1-.072-.083l-.37-.864h-1.863l-.384.864a.204.204 0 0 1-.19.116h-.432l1.636-3.58h.567l1.658 3.58Zm-2.7-1.329h1.539l-.65-1.456c-.049-.11-.09-.223-.122-.337l-.063.187c-.019.057-.04.11-.06.152l-.643 1.454ZM61.929 46.605c.032.016.06.038.082.065l2.385 2.698v-2.779h.488v3.58h-.272a.264.264 0 0 1-.112-.022.295.295 0 0 1-.087-.066l-2.383-2.696a.974.974 0 0 1 0 .123V50.168h-.488v-3.58h.289a.26.26 0 0 1 .098.017ZM68.903 48.745v1.421h-.545v-1.421l-1.508-2.156h.488a.197.197 0 0 1 .117.03c.03.024.055.051.074.081l.943 1.391a1.41 1.41 0 0 1 .166.317l.072-.154c.026-.056.057-.11.092-.163l.93-1.4a.373.373 0 0 1 .07-.076.182.182 0 0 1 .118-.035h.494l-1.51 2.165ZM46.731 40.582c.238.026.478.048.72.066 3.68-1.43 6.791-3.77 8.948-6.728 2.156-2.958 3.261-6.403 3.177-9.904l-4.054-3.522c.824 3.727.438 7.58-1.114 11.128-1.553 3.548-4.21 6.65-7.677 8.96Z" fill="#AFB1B8"/><path d="m45.284 40.418.109.02c3.704-2.303 6.527-5.517 8.106-9.228 1.579-3.711 1.84-7.749.75-11.59l-5.775-5.017c2.335 4.124 3.276 8.74 2.71 13.31-.564 4.57-2.61 8.906-5.9 12.505ZM64.868 28.153c-.981 3.846-3.364 7.315-6.794 9.892a21.625 21.625 0 0 1-3.228 2.013c2.793-.713 5.36-1.974 7.504-3.686 2.144-1.712 3.807-3.828 4.86-6.187l-2.342-2.032Z" fill="#AFB1B8"/><path d="m63.949 27.586-3.334-2.897c-.064 3.303-1.145 6.531-3.13 9.348-1.986 2.818-4.804 5.122-8.16 6.673h.016a21.8 21.8 0 0 0 2.238-.116c3.137-1.113 5.909-2.883 8.067-5.153 2.159-2.27 3.637-4.968 4.303-7.855ZM45.766 12.487l-3.978-3.461c-3.556 1.194-6.614 3.293-8.775 6.022-2.16 2.73-3.322 5.962-3.333 9.274.013 3.66 1.431 7.212 4.03 10.093 2.597 2.881 6.227 4.927 10.314 5.814 3.648-3.862 5.785-8.634 6.098-13.623.313-4.99-1.213-9.935-4.356-14.119ZM73.14 27.053c-.014-4.342-2.006-8.503-5.54-11.574-3.534-3.07-8.324-4.801-13.322-4.813a21.18 21.18 0 0 0-6.753 1.092l24.355 21.16a14.353 14.353 0 0 0 1.26-5.865Z" fill="#AFB1B8"/></svg>