<svg aria-hidden="true" style="position:absolute;width:0;height:0;overflow:hidden" xmlns="http://www.w3.org/2000/svg"><defs><symbol id="antenna" viewBox="0 0 32 32"><path fill="#212121" style="fill:var(--color1, #212121)" d="m30.773 22.098-8.443-8.505.937-4.616c.225.09.485.144.758.146h.033a2.16 2.16 0 1 0-2.029-1.42l-.005-.015-4.96.606L8.973.161a.53.53 0 0 0-.376-.16.536.536 0 0 0-.373.155L6.712 1.66a.535.535 0 0 0 0 .754l.814.825C6.383 5.301 5.71 7.761 5.71 10.378c0 4.106 1.656 7.824 4.336 10.525l-.001-.001a.49.49 0 0 0 .146.097 2.986 2.986 0 0 0-.052.546v6.188h-6.4a2.669 2.669 0 0 0-2.667 2.666v1.067c0 .295.239.534.534.534H26.14a.534.534 0 0 0 .533-.534v-1.067a2.67 2.67 0 0 0-2.666-2.666h-6.4v-2.742a14.784 14.784 0 0 0 10.166-1.502l-.077.039.818.823a.534.534 0 0 0 .376.16.536.536 0 0 0 .373-.155l1.512-1.504a.535.535 0 0 0 0-.754zM23.28 6.233a1.067 1.067 0 1 1 .752 1.822h-.004a1.066 1.066 0 0 1-.747-1.822h-.002zm-1.256 3.504-.598 2.946-1.175-1.183 1.774-1.763zm-.605-.902-1.92 1.909-1.486-1.493 3.406-.416zM24.004 28.8a1.6 1.6 0 0 1 1.6 1.6v.534H2.138V30.4a1.6 1.6 0 0 1 1.6-1.6h20.267zm-7.466-2.134v1.067h-5.334v-1.067h5.334zM11.204 25.6v-4.053c0-1.294 1.196-2.346 2.667-2.346s2.667 1.053 2.667 2.346V25.6h-5.334zm6.4-1.696v-2.357c0-1.882-1.675-3.413-3.733-3.413h-.058c-1.353 0-2.54.707-3.213 1.771l-.009.016a13.817 13.817 0 0 1-3.812-9.55c0-2.314.567-4.496 1.569-6.414l-.036.077 18.602 18.709c-1.823.947-3.979 1.502-6.266 1.502-1.079 0-2.128-.124-3.136-.357l.093.018zm11.289-.684L7.836 2.039l.754-.752 7.935 7.98c.004 0 .006.007.01.01l13.114 13.191-.757.752z"/><path fill="#2196f3" style="fill:var(--color2, #2196f3)" d="M13.876 20.267h-.007a1.6 1.6 0 0 0-.003 3.2h.007a1.6 1.6 0 0 0 .002-3.2zm.373 1.978a.534.534 0 1 1-.378-.912.533.533 0 0 1 .374.911h.005z"/></symbol><symbol id="astronaut" viewBox="0 0 32 32"><path fill="#2196f3" style="fill:var(--color2, #2196f3)" d="M31.974 4.524a.535.535 0 0 0-.427-.362h-.003l-1.911-.278-.855-1.731c-.179-.365-.777-.365-.956 0l-.855 1.731-1.911.278a.534.534 0 0 0-.296.91l1.383 1.348-.326 1.903a.532.532 0 0 0 .774.562l1.709-.899 1.709.899a.534.534 0 0 0 .773-.565v.003l-.326-1.903 1.383-1.348a.535.535 0 0 0 .134-.55l.001.004zm-2.463 1.327a.53.53 0 0 0-.153.472l.191 1.114-1-.526a.525.525 0 0 0-.501.001l.003-.001-1 .526.191-1.114a.53.53 0 0 0-.152-.472l-.811-.79 1.119-.162a.532.532 0 0 0 .402-.292l.5-1.013.5 1.013a.532.532 0 0 0 .402.292l1.119.162-.809.79zm-3.377 14.671h-1.067v1.067h1.067v-1.067zm0 2.134h-1.067v1.066h1.067v-1.066zm1.066-1.067h-1.067v1.067H27.2v-1.067zm-2.133 0H24v1.067h1.067v-1.067zm-2.667 4.8h-1.067v1.067H22.4v-1.067zm0 2.134h-1.067v1.067H22.4v-1.067zm1.067-1.067H22.4v1.067h1.067v-1.067zm-2.133 0h-1.067v1.067h1.067v-1.067zM16 24.256h-1.066v1.067H16v-1.067zm0 2.133h-1.066v1.067H16v-1.067zm1.067-1.067H16v1.067h1.067v-1.067zm-2.133 0h-1.067v1.067h1.067v-1.067zm-9.067-19.2H4.801v1.066h1.066V6.122zm0 2.134H4.801v1.066h1.066V8.256zm1.066-1.067H5.866v1.067h1.066V7.189zm-2.133 0H3.733v1.067H4.8V7.189z"/><path fill="#212121" style="fill:var(--color1, #212121)" d="M24.715 14.16a1.774 1.774 0 0 0-1.179-.703l-.009-.001a1.769 1.769 0 0 0-1.344.355l.004-.003-1.253.96-1.898 1.417-1.358-.541c2.421-1.086 4.113-3.508 4.113-6.32 0-3.823-3.122-6.934-6.961-6.934S7.869 5.5 7.869 9.324c0 1.386.415 2.674 1.12 3.759l-2.768-.024c-.009 0-.016.005-.023.005a.511.511 0 0 0-.159.033l.004-.001c-.013.005-.026.007-.038.013-.006.003-.013.003-.019.006l-3.233 1.596-.001.001-1.893.91a.5.5 0 0 0-.065.036l.001-.001a1.782 1.782 0 0 0-.594 2.306l-.005-.01c.22.424.592.742 1.043.885l.013.003a1.772 1.772 0 0 0 1.388-.133l-.009.005 1.388-.738 2.264-1.169 1.357-.008-5.442 5.415-.001.001-1.339 1.333a1.643 1.643 0 0 0-.491 1.173v.005a1.668 1.668 0 0 0 1.667 1.664h.002a1.67 1.67 0 0 0 1.18-.485l1.314-1.309 1.741-1.3.901.897L4.07 27.28a1.643 1.643 0 0 0-.491 1.173v.004a1.662 1.662 0 0 0 1.666 1.664h.003a1.67 1.67 0 0 0 1.18-.485l4.488-4.472c.007-.006.016-.009.022-.016l5.166-5.658 3.471.494a.474.474 0 0 0 .262-.032c.017-.006.032-.015.049-.023.019-.01.039-.015.058-.027l3.213-2.133c.012-.008.018-.021.029-.03.013-.01.029-.014.041-.026l1.271-1.191c.348-.326.564-.787.564-1.3 0-.4-.132-.769-.355-1.066l.003.005zM2.13 17.77a.706.706 0 0 1-.564.05l.005.001a.717.717 0 0 1-.215-1.258l.002-.001 1.314-.632.316.924.133.389-.992.527zm3.497-1.828-1.548.8-.255-.746-.184-.537 2.027-1.001-.04 1.484zm15.1-6.62c0 .918-.219 1.785-.599 2.56l-4.181-1.899a1.865 1.865 0 0 0-.782-1.384l-.006-.004 1.464-4.861c2.377.757 4.104 2.975 4.104 5.588zm-11.789 0c0-3.235 2.644-5.867 5.894-5.867.253 0 .5.022.745.053l-1.432 4.753c-.019 0-.037-.006-.057-.006h-.001a1.872 1.872 0 0 0-1.872 1.867 1.873 1.873 0 0 0 1.872 1.867h.001c.695 0 1.295-.383 1.618-.944l3.863 1.755a5.891 5.891 0 0 1-4.737 2.39c-3.25 0-5.894-2.632-5.894-5.867zm5.957.8c0 .441-.362.8-.806.8h-.001a.804.804 0 0 1-.804-.8c0-.441.361-.8.806-.8s.806.359.806.8zM2.464 25.146a.606.606 0 0 1-.855.001.591.591 0 0 1 0-.844l.962-.959.852.848-.959.954zm3.214 3.734a.606.606 0 0 1-.855.001.591.591 0 0 1 0-.844l.963-.959.852.848-.96.955zm3.482-3.469-.001.001-1.765 1.76-.852-.848 1.765-1.757a.527.527 0 0 0 .09-.136c.007-.014.02-.026.026-.04.016-.041.019-.085.026-.128.003-.025.014-.048.014-.073 0-.035-.013-.07-.02-.105-.006-.032-.006-.064-.019-.096a.536.536 0 0 0-.092-.138c-.01-.012-.014-.026-.025-.038h-.001l-.001-.002-1.607-1.6c-.017-.017-.039-.024-.058-.038a.491.491 0 0 0-.084-.056l-.003-.001a.527.527 0 0 0-.09-.031l-.003-.001a.502.502 0 0 0-.101-.02h-.025a.603.603 0 0 0-.075.005h.003c-.036.005-.069.009-.104.021s-.064.027-.094.045c-.02.011-.043.015-.061.029l-1.774 1.324-.901-.897 2.399-2.386 4.36 4.289-.928.919zm6.819-7.017c-.016-.002-.03.004-.046.003l-.027-.001a.562.562 0 0 0-.092.008h.003a.484.484 0 0 0-.187.07l.002-.001a.492.492 0 0 0-.083.061c-.013.011-.028.016-.04.029l-4.698 5.146-4.328-4.256 2.833-2.818a.535.535 0 0 0-.378-.911h-.002l-2.219.013.028-1.607 3.104.027a6.928 6.928 0 0 0 4.978 2.101h.003c.438 0 .864-.046 1.28-.122.04.032.08.064.129.085l2.41.96.152.758.178.886-3.003-.427zm4.041.178-.313-1.558 1.446-1.08.946 1.257-2.08 1.381zm3.753-2.831-.837.785-.931-1.236.831-.637a.735.735 0 0 1 .543-.143.718.718 0 0 1 .621.71.71.71 0 0 1-.226.521z"/><path fill="#212121" style="fill:var(--color1, #212121)" d="m13.602 18.544-2.143-2.134a.53.53 0 0 0-.752 0l-2.143 2.133a.535.535 0 0 0 0 .756l2.142 2.134a.53.53 0 0 0 .752 0l2.143-2.134a.532.532 0 0 0 0-.756zm-2.519 1.759-1.387-1.381 1.386-1.381 1.387 1.381-1.387 1.381zm6.081-15.232-.258 1.036c.071.018 1.738.452 1.738 2.149h1.067c0-2.017-1.666-2.965-2.547-3.184zm2.547 4.251h-1.067v1.066h1.067V9.322z"/></symbol><symbol id="Client1" viewBox="0 0 50 32"><path  d="M17.882 3.448 21.18 6.57l-6.121-.004v15.147h16v-5.792l3.294 3.119V3.448H17.882zm13.032 12.107-9.351-8.852h9.351v8.852zm-2.903 3.942h-10.42V9.31h.736v9.497h9.684v.69zm-7.959 4.232-.385.793-.385-.793h-.323l.562 1.057v.616h.292v-.616l.56-1.057h-.321zm.484 1.673.136-.39h.648l.136.39h.304l-.633-1.673h-.261l-.632 1.673h.302zm.459-1.317.242.694h-.485l.242-.694zm1.533.653a.374.374 0 0 0-.063.21v.003c0 .141.049.256.148.344s.232.131.397.131a.692.692 0 0 0 .428-.135l.094.112h.324l-.246-.291a.84.84 0 0 0 .144-.507h-.242a.676.676 0 0 1-.07.307l-.323-.381.114-.083a.637.637 0 0 0 .174-.175.366.366 0 0 0 .053-.19v-.01a.345.345 0 0 0-.117-.259.421.421 0 0 0-.282-.109h-.017.001a.444.444 0 0 0-.321.115.405.405 0 0 0-.12.31.42.42 0 0 0 .038.167c.026.057.072.127.136.209a.986.986 0 0 0-.249.231zm.754.37a.427.427 0 0 1-.264.094h-.014a.274.274 0 0 1-.186-.073.252.252 0 0 1-.075-.179v-.01c0-.089.046-.169.138-.239l.036-.025.365.431zm-.299-.741c-.079-.097-.119-.178-.119-.242 0-.056.016-.102.048-.139a.164.164 0 0 1 .123-.056H23.048c.046 0 .088.018.119.047a.147.147 0 0 1 .049.112v.006a.205.205 0 0 1-.071.156l-.036.028-.128.088zm2.722.909c.115-.1.181-.24.198-.418h-.289c-.016.12-.052.205-.109.256s-.144.077-.257.077c-.125 0-.22-.048-.285-.143s-.097-.233-.097-.414v-.148c.002-.179.036-.313.104-.406s.166-.139.292-.139c.109 0 .191.027.247.08s.092.14.106.26h.289c-.019-.184-.084-.325-.196-.425s-.261-.151-.446-.151a.631.631 0 0 0-.601.372l-.002.004a.97.97 0 0 0-.084.398v.021-.001.156c.002.154.031.289.086.406s.134.206.234.27c.102.063.22.094.353.094.191 0 .344-.049.458-.149zm1.709-.235a1.04 1.04 0 0 0 .085-.432v-.11a1 1 0 0 0-.09-.417l.003.006a.644.644 0 0 0-.242-.281l-.003-.002c-.105-.066-.226-.099-.362-.099s-.257.033-.363.1a.658.658 0 0 0-.245.286.997.997 0 0 0-.086.411v.022-.001.094c.001.16.03.301.087.424s.14.217.246.284a.672.672 0 0 0 .363.099c.137 0 .258-.033.363-.099s.187-.162.243-.285zm-.311-.945c.071.099.105.241.105.426v.087c0 .188-.035.332-.104.43s-.168.147-.296.147h-.012a.347.347 0 0 1-.286-.15l-.001-.001c-.072-.1-.107-.242-.107-.426v-.096c.001-.18.038-.319.108-.417a.344.344 0 0 1 .283-.148h.013-.001c.129 0 .228.049.298.148z"/></symbol><symbol id="Client2" viewBox="0 0 50 32"><path d="M23.583 2.946h-.064c-.099-.006-.198-.008-.296-.01h-.214c-.187 0-.377.005-.567.014l-.021-.001-.022.001h.001a13.27 13.27 0 0 0-5.029 1.297l.079-.035-.203.098v10.42l.476-.162c.418-.144.863-.273 1.324-.392a15.75 15.75 0 0 1 3.798-.506h.011v1.369c-.18.001-.355.006-.529.015l.028-.001h-.04a15.33 15.33 0 0 0-3.037.473l.106-.024a14.807 14.807 0 0 0-3.568 1.4l.077-.039V3.5a13.692 13.692 0 0 1 3.567-1.469l.097-.021a13.696 13.696 0 0 1 3.449-.445h.204c.24.006.475.017.696.033.58.041 1.156.133 1.72.274v1.347a10.02 10.02 0 0 0-1.632-.249l-.035-.002-.034-.003c-.116-.01-.232-.02-.341-.02zm2.371 1.377c.299.023.608.034.921.034a14.846 14.846 0 0 0 3.733-.489l-.103.023a14.923 14.923 0 0 0 3.567-1.4l-.077.039v13.125a13.761 13.761 0 0 1-3.567 1.469l-.097.021a13.751 13.751 0 0 1-3.45.444H26.795c-.9 0-1.774-.113-2.609-.325l.073.016V4.071a10.555 10.555 0 0 0 1.695.253zm6.68.102-.476.16c-.288.106-.729.241-1.177.362l-.147.034a15.741 15.741 0 0 1-3.953.507h-.003c-.311 0-.596-.008-.872-.026l-.38-.025v10.719l.326.028c.302.027.614.04.928.04a12.705 12.705 0 0 0 3.204-.423l-.088.02a13.025 13.025 0 0 0 2.513-.909l-.078.034.203-.098V4.425zM16.817 21.43a.702.702 0 0 0-.505-.215h-.026.001-.011a.795.795 0 0 0-.301.059l.005-.002a.693.693 0 0 0-.39.392l-.002.005a.766.766 0 0 0-.055.296v1.785a.836.836 0 0 0 .07.366.716.716 0 0 0 .179.24c.071.06.155.104.245.127.087.024.177.037.267.037a.756.756 0 0 0 .74-.751v-.2h-.467v.17c0 .053-.01.104-.028.151l.001-.003a.295.295 0 0 1-.068.101.32.32 0 0 1-.195.068.228.228 0 0 1-.218-.095v-.001a.42.42 0 0 1-.063-.221v-.019.001-1.665a.574.574 0 0 1 .057-.267.24.24 0 0 1 .201-.109l.029.002h-.001.009c.082 0 .154.039.199.1v.001a.379.379 0 0 1 .077.23v.011-.001.154h.462v-.19a.838.838 0 0 0-.059-.31l.002.006a.747.747 0 0 0-.157-.252zm2.773-.021a.823.823 0 0 0-.531-.196.805.805 0 0 0-.279.05.737.737 0 0 0-.425.392l-.002.005a.82.82 0 0 0-.068.345v1.713c-.003.12.02.24.068.35a.699.699 0 0 0 .181.24.747.747 0 0 0 .247.151.799.799 0 0 0 .81-.151l-.001.001a.746.746 0 0 0 .244-.591V21.991a.839.839 0 0 0-.07-.336l.002.005a.778.778 0 0 0-.176-.25zm-.218 2.309a.31.31 0 0 1-.093.248.34.34 0 0 1-.44 0 .306.306 0 0 1-.094-.221l.001-.029v.001-1.712l-.001-.026c0-.087.036-.165.094-.221a.34.34 0 0 1 .44 0 .306.306 0 0 1 .094.221l-.001.028v-.001 1.713zm3.86.765v-3.242h-.448l-.59 1.716h-.008l-.594-1.716h-.444v3.242h.463v-1.972h.008l.453 1.394h.231l.457-1.394h.008v1.972h.463zm2.631-3.015a.636.636 0 0 0-.262-.177.997.997 0 0 0-.316-.05h-.021.001-.688v3.241h.462v-1.266h.238a.848.848 0 0 0 .417-.088.681.681 0 0 0 .252-.245l.002-.003a.757.757 0 0 0 .105-.278l.001-.005c.018-.122.026-.245.025-.368a1.847 1.847 0 0 0-.045-.463.691.691 0 0 0-.171-.298zm-.239.988a.405.405 0 0 1-.044.171l.001-.002a.266.266 0 0 1-.117.113l-.002.001a.471.471 0 0 1-.194.042l-.025-.001h.001-.211v-1.102h.238l.022-.001a.44.44 0 0 1 .189.042l-.003-.001a.268.268 0 0 1 .108.118l.001.002a.463.463 0 0 1 .04.18v.216c0 .075.005.153 0 .223h-.005zm2.427-1.215h-.379l-.714 3.242h.462l.136-.696h.63l.136.696h.462l-.732-3.242zm-.427 2.103.227-1.175h.008l.226 1.175h-.462zm3.411-.15h-.008l-.697-1.953h-.444v3.242h.462v-1.95h.009l.706 1.949h.435v-3.241h-.462v1.953zm2.823-1.953-.372 1.288h-.009l-.372-1.288h-.488l.634 1.872v1.37h.462v-1.37l.634-1.872h-.489zm-18.329 4.157h.223v.625h.151v-.624h.221v-.128h-.595v.128zm1.872-.128-.292.752h.16l.062-.171h.3l.064.171h.165l-.299-.753h-.16zm-.024.455.102-.279.102.279h-.205zm1.874.02h.174v.097a.293.293 0 0 1-.179.064h-.011a.187.187 0 0 1-.148-.072.312.312 0 0 1-.056-.179v-.018.001c0-.168.072-.251.216-.251l.016-.001a.16.16 0 0 1 .154.12v.001l.149-.029c-.032-.147-.138-.221-.319-.221h-.011a.379.379 0 0 0-.253.097.368.368 0 0 0-.108.29v-.001.018a.41.41 0 0 0 .097.265v-.001c.066.069.16.111.262.111l.024-.001h-.001.012a.451.451 0 0 0 .307-.12v-.296h-.326v.127zm1.889-.475h-.152v.752h.527v-.128h-.375v-.625zm1.598 0h-.152v.752h.152v-.753zm1.561.503-.308-.503h-.147v.753h.141v-.492l.303.492h.152v-.753h-.14v.503zm1.413-.082h.375v-.128h-.375v-.165h.403v-.128h-.556v.752h.571v-.128h-.419v-.203zm3.423-.124h-.296v-.297h-.151v.752h.151v-.329h.296v.329h.152v-.753h-.152v.297zm1.42.124h.376v-.128h-.376v-.165h.405v-.128h-.555v.752h.57v-.128h-.419v-.203zm1.926 0c.131-.021.198-.09.198-.209l.001-.021a.179.179 0 0 0-.075-.146h-.001a.414.414 0 0 0-.191-.045l-.031.001h.001-.319v.752h.152v-.315H32.258a.19.19 0 0 1 .083.018h-.001c.022.014.04.032.054.055l.164.239h.181l-.092-.147a.538.538 0 0 0-.165-.18l-.002-.001zm-.152-.104h-.112v-.189h.119l.032-.001c.043 0 .085.007.124.02l-.003-.001a.099.099 0 0 1 .021.121.112.112 0 0 1-.028.033.421.421 0 0 1-.126.019l-.03-.001h.001zm1.605.104h.375v-.128h-.375v-.165h.405v-.128h-.557v.752h.571v-.128h-.419v-.203z"/></symbol><symbol id="Client3" viewBox="0 0 50 32"><path d="M17.132 23.26c.008 0 .015.001.022.004s.013.007.018.011l.103.098a.831.831 0 0 1-.289.186 1.13 1.13 0 0 1-.409.067 1.079 1.079 0 0 1-.384-.063.858.858 0 0 1-.29-.176h.001a.777.777 0 0 1-.185-.267l-.002-.005a.883.883 0 0 1-.066-.339v-.01.001-.018c0-.239.104-.455.269-.603l.001-.001a.932.932 0 0 1 .308-.177c.127-.042.261-.064.397-.062.126-.003.251.016.368.056.102.039.195.092.276.158l-.086.105a.095.095 0 0 1-.021.019.055.055 0 0 1-.029.008h-.006a.094.094 0 0 1-.038-.011l-.046-.028-.064-.035a.695.695 0 0 0-.198-.062l-.004-.001a.9.9 0 0 0-.142-.011h-.011.001-.009a.814.814 0 0 0-.281.049l.006-.002a.606.606 0 0 0-.368.341.693.693 0 0 0-.052.266v.01-.001a.715.715 0 0 0 .052.281.591.591 0 0 0 .355.337c.084.03.174.045.264.045.052.001.105-.002.157-.009a.616.616 0 0 0 .34-.145l-.001.001a.08.08 0 0 1 .048-.018zm2.964-.493a.853.853 0 0 1-.069.347.773.773 0 0 1-.192.269l-.001.001a.887.887 0 0 1-.297.175l-.006.002a1.254 1.254 0 0 1-.789-.003l.009.003a.885.885 0 0 1-.302-.178l.001.001a.798.798 0 0 1-.193-.267l-.002-.005a.9.9 0 0 1 .002-.7l-.002.006a.812.812 0 0 1 .195-.273.886.886 0 0 1 .301-.171 1.212 1.212 0 0 1 .789.002l-.009-.003c.114.04.217.1.303.177s.151.169.194.269c.048.112.071.23.069.349zm-.269 0v-.014a.727.727 0 0 0-.051-.269l.002.005a.575.575 0 0 0-.35-.339l-.004-.001a.885.885 0 0 0-.574.002l.006-.002a.612.612 0 0 0-.217.132.56.56 0 0 0-.137.205l-.001.004a.805.805 0 0 0 .002.563l-.002-.006a.573.573 0 0 0 .351.338l.004.001c.183.06.384.06.567 0a.598.598 0 0 0 .216-.13.584.584 0 0 0 .137-.208.72.72 0 0 0 .049-.279zm2.291.292.027.063.029-.062a.718.718 0 0 1 .033-.061l.656-1.036c.013-.018.024-.029.038-.032s.029-.006.045-.006h.203v1.685h-.23v-1.291l-.001-.029.001-.031v.001l-.66 1.05a.1.1 0 0 1-.038.038.113.113 0 0 1-.056.014h-.039a.12.12 0 0 1-.056-.014h.001a.1.1 0 0 1-.038-.038l-.679-1.057v1.352h-.222v-1.68h.202a.17.17 0 0 1 .046.006h-.001a.075.075 0 0 1 .036.032l.67 1.037a.35.35 0 0 1 .033.06zm2.467-.083v.631h-.256v-1.681h.572c.108-.002.216.011.32.037.083.021.16.056.226.105a.427.427 0 0 1 .127.162l.001.003c.03.069.045.142.043.216v.011a.466.466 0 0 1-.185.372l-.001.001a.668.668 0 0 1-.227.111 1.057 1.057 0 0 1-.289.039h-.021l-.31-.005zm0-.181h.311a.739.739 0 0 0 .199-.025.44.44 0 0 0 .145-.073l-.001.001a.323.323 0 0 0 .118-.249v-.004l.001-.018a.282.282 0 0 0-.027-.12l.001.002a.326.326 0 0 0-.089-.114h-.001a.543.543 0 0 0-.305-.092l-.043.002h.002-.311v.693zm3.449.813H27.828a.095.095 0 0 1-.053-.016.112.112 0 0 1-.034-.038v-.001l-.174-.407h-.877l-.181.407a.096.096 0 0 1-.087.055H26.216l.77-1.685h.267l.78 1.685zm-1.27-.625h.724l-.306-.685a1.16 1.16 0 0 1-.057-.159l-.03.088a.781.781 0 0 1-.028.072l-.303.684zm2.379-1.051a.13.13 0 0 1 .039.031l1.122 1.27v-1.308h.23v1.685h-.131a.126.126 0 0 1-.051-.011h.001a.127.127 0 0 1-.041-.031l-1.121-1.269.001.029-.001.03v-.001 1.252h-.23v-1.685h.139c.016 0 .031.003.044.008h-.001zm3.282 1.007v.669h-.256v-.669l-.71-1.015H31.695c.018 0 .035.005.05.015a.157.157 0 0 1 .035.038l.444.655c.03.043.057.092.077.145l.002.005.034-.072a.652.652 0 0 1 .043-.077l.438-.659a.188.188 0 0 1 .033-.036.09.09 0 0 1 .051-.017H33.139l-.711 1.019zm-10.434-3.842c.112.012.225.023.339.031 1.732-.673 3.196-1.774 4.211-3.166s1.535-3.013 1.495-4.661l-1.908-1.657c.388 1.754.206 3.567-.524 5.237s-1.981 3.129-3.613 4.216z"/><path d="m21.31 19.02.051.009c1.743-1.084 3.072-2.596 3.815-4.343s.866-3.647.353-5.454l-2.718-2.361c1.099 1.941 1.542 4.113 1.275 6.264s-1.228 4.191-2.776 5.885zm9.216-5.772c-.462 1.81-1.583 3.442-3.197 4.655-.441.336-.938.65-1.462.921l-.057.027c1.314-.336 2.522-.929 3.531-1.735s1.792-1.801 2.287-2.912l-1.102-.956z"/><path  d="m30.094 12.982-1.569-1.363c-.03 1.554-.539 3.073-1.473 4.399s-2.261 2.41-3.84 3.14h.008c.371 0 .737-.02 1.098-.058l-.045.004c1.476-.524 2.781-1.357 3.796-2.425s1.712-2.338 2.025-3.696zm-8.557-7.106-1.872-1.629c-1.673.562-3.112 1.55-4.129 2.834s-1.563 2.806-1.568 4.364c.006 1.722.673 3.394 1.896 4.75s2.93 2.319 4.854 2.736c1.717-1.817 2.722-4.063 2.87-6.411s-.571-4.675-2.05-6.644zm12.882 6.855c-.007-2.043-.944-4.001-2.607-5.447s-3.917-2.259-6.269-2.265h-.019a9.94 9.94 0 0 0-3.229.535l.07-.021 11.461 9.958a6.64 6.64 0 0 0 .593-2.76z"/></symbol><symbol id="Client4" viewBox="0 0 50 32"><path d="M11.363 10.084h-.001c-1.128 0-2.043.813-2.043 1.816v.001c0 1.003.915 1.816 2.043 1.816h.001c1.128 0 2.043-.813 2.043-1.816V11.9c0-1.003-.915-1.816-2.043-1.816zm15.082-.58c-.003-1.393-.627-2.728-1.736-3.713s-2.61-1.54-4.177-1.543c-1.568.002-3.071.557-4.18 1.542s-1.733 2.32-1.736 3.714v7.681s11.828-1.17 11.829-7.68v-.001zM5.176 19.706c.003.969.438 1.898 1.208 2.584S8.2 23.362 9.29 23.364c1.09-.003 2.135-.389 2.906-1.074s1.206-1.614 1.208-2.583v-5.345s-8.23.816-8.23 5.344zm4.115.958c-.213 0-.421-.056-.599-.161a.994.994 0 0 1-.394-.424l-.003-.006a.841.841 0 0 1-.06-.559l-.001.006c.041-.185.144-.356.295-.49s.343-.225.552-.262a1.217 1.217 0 0 1 .631.056l-.008-.003c.197.073.365.195.484.353s.182.343.182.532v.002a.87.87 0 0 1-.083.371l.002-.005a.979.979 0 0 1-.232.311l-.001.001c-.1.089-.219.16-.35.209a1.178 1.178 0 0 1-.411.073h-.002v-.004zm8.317-.528h-.794v.82H16.4v-2.008h1.307v.335h-.894v.519h.794v.334zm1.988-.137c0 .198-.035.371-.104.52s-.17.264-.301.345a.822.822 0 0 1-.431.122h-.016.001a.802.802 0 0 1-.747-.457l-.002-.005a1.16 1.16 0 0 1-.109-.495v-.019.001-.099c0-.198.035-.372.106-.521s.172-.266.302-.346c.13-.081.279-.121.447-.121s.315.04.445.121c.131.08.231.195.302.346s.107.323.107.52V20zm-.419-.092c0-.21-.038-.37-.113-.48a.367.367 0 0 0-.307-.164h-.017.001-.016a.367.367 0 0 0-.305.162l-.001.001c-.075.108-.113.266-.114.474v.098c0 .205.038.364.113.477s.184.169.326.169h.016a.363.363 0 0 0 .303-.162l.001-.001c.074-.109.112-.268.113-.477v-.098zm1.76.523v-.012a.21.21 0 0 0-.082-.167 1.032 1.032 0 0 0-.298-.132 2.067 2.067 0 0 1-.352-.144l.012.006c-.228-.123-.342-.289-.342-.498 0-.108.03-.205.091-.289s.15-.152.264-.2a.994.994 0 0 1 .386-.072c.144 0 .271.026.384.079s.199.124.26.219a.566.566 0 0 1 .094.322h-.414c0-.092-.028-.163-.087-.214-.058-.052-.139-.077-.244-.077a.38.38 0 0 0-.236.065.2.2 0 0 0-.084.163v.005c0 .065.033.12.098.164.084.051.18.094.283.122l.008.002c.235.071.407.159.514.264s.161.235.161.392c0 .174-.066.311-.198.409s-.308.148-.53.148a1.02 1.02 0 0 1-.422-.085.68.68 0 0 1-.289-.23l-.001-.002a.593.593 0 0 1-.099-.329v-.013.001h.415c0 .221.132.332.397.332.098 0 .175-.02.231-.059a.196.196 0 0 0 .082-.16v-.008zm2.208-1.146h-.615v1.672h-.414v-1.672h-.606v-.335h1.635v.335zm1.445.803h-.794v.538h.932v.332h-1.345v-2.008h1.343v.335h-.929v.479h.794v.324zm1.123.135h-.329v.735h-.414v-2.008h.746c.237 0 .42.053.549.159s.193.255.193.448c0 .137-.03.252-.089.344a.608.608 0 0 1-.265.216l-.004.002.434.82v.019h-.444l-.376-.735zm-.329-.335h.334c.104 0 .184-.026.241-.079a.285.285 0 0 0 .086-.204v-.016.001c0-.095-.027-.169-.081-.224s-.136-.081-.247-.081h-.332v.602zm2.506.362v.707h-.414v-2.008h.783c.151 0 .283.028.397.083a.615.615 0 0 1 .357.582c0 .197-.068.352-.202.466s-.32.17-.559.17h-.362zm0-.335h.369c.11 0 .193-.026.249-.077.058-.052.087-.125.087-.221v-.015a.331.331 0 0 0-.087-.224.328.328 0 0 0-.24-.094h-.379v.631zm2.617.173h-.794v.538h.932v.332H29.3v-2.008h1.343v.335h-.929v.479h.794v.324zm1.919-.803h-.615v1.672h-.414v-1.672h-.607v-.335h1.635v.335zm1.445.803h-.793v.538h.932v.332h-1.346v-2.008h1.343v.335h-.929v.479h.794v.324zm1.124.135h-.329v.735h-.414v-2.008h.746c.237 0 .42.053.549.159s.193.255.193.448c0 .137-.03.252-.089.344a.613.613 0 0 1-.265.216l-.004.001.434.82v.019h-.444l-.376-.735zm-.33-.335h.334c.104 0 .184-.026.241-.079a.285.285 0 0 0 .086-.204v-.016.001a.305.305 0 0 0-.081-.224c-.053-.054-.136-.081-.247-.081h-.332v.602zm2.431.543v-.012a.207.207 0 0 0-.083-.167h-.001a1.032 1.032 0 0 0-.298-.132 2.152 2.152 0 0 1-.352-.143l.012.006c-.228-.123-.342-.289-.342-.498 0-.108.031-.205.091-.289.062-.086.15-.152.264-.2s.244-.072.386-.072c.144 0 .271.026.384.079s.199.124.26.219a.566.566 0 0 1 .094.322h-.414c0-.092-.028-.163-.087-.214-.058-.052-.139-.077-.244-.077a.38.38 0 0 0-.236.065.2.2 0 0 0-.085.164v.005c0 .065.033.12.098.164s.163.085.291.124c.235.071.407.159.514.264s.161.235.161.392c0 .174-.066.311-.198.409s-.308.148-.53.148a1.02 1.02 0 0 1-.422-.085.68.68 0 0 1-.289-.23l-.001-.002a.593.593 0 0 1-.099-.329v-.013.001h.415c0 .221.132.332.397.332.098 0 .175-.02.23-.059a.198.198 0 0 0 .083-.16v-.008z"/></symbol><symbol id="Client5" viewBox="0 0 50 32"><path d="M12.592 21.205a.675.675 0 0 1 .174.495.67.67 0 0 1-.064.287l.002-.004a.736.736 0 0 1-.205.261l-.001.001a1.22 1.22 0 0 1-.78.212h.004-1.367v-2.913h1.338a1.219 1.219 0 0 1 .746.195l-.005-.003c.087.067.155.151.2.245s.065.198.06.301a.636.636 0 0 1-.155.445.742.742 0 0 1-.408.228c.181.03.345.119.461.249zm-1.603-.439h.572a.587.587 0 0 0 .364-.097.354.354 0 0 0 .097-.127l.001-.002a.315.315 0 0 0 .027-.128l-.001-.029v.001l.001-.024a.322.322 0 0 0-.028-.132l.001.002a.377.377 0 0 0-.095-.13.581.581 0 0 0-.329-.1l-.048.002h.002-.563v.765zm.992 1.116a.358.358 0 0 0 .104-.131l.001-.002a.334.334 0 0 0 .03-.14l-.001-.024v.001l.001-.021a.343.343 0 0 0-.033-.146l.001.002a.372.372 0 0 0-.107-.134l-.001-.001a.622.622 0 0 0-.351-.107l-.04.001h.002-.6v.801h.608a.645.645 0 0 0 .384-.101zm3.346.576-.744-1.139h-.28v1.139h-.64v-2.913h1.213a1.265 1.265 0 0 1 .847.25l-.003-.002c.169.158.272.367.288.587s-.054.44-.198.618c-.15.155-.35.262-.573.295l-.006.001.793 1.164h-.696zm-1.024-1.536h.524c.364 0 .546-.147.546-.441l.001-.023a.406.406 0 0 0-.031-.156l.001.003a.434.434 0 0 0-.104-.15.604.604 0 0 0-.362-.121l-.052.002h.002-.53l.006.887zm4.525.95h-1.276l-.225.586h-.672l1.172-2.881h.727l1.167 2.881h-.671l-.221-.586zm-.171-.442-.466-1.23-.466 1.23h.933zm4.553 1.028h-.635l-1.426-1.981v1.981h-.634v-2.913h.634l1.426 1.992v-1.992h.635v2.913zm3.629-.698c-.132.22-.332.4-.576.514a1.992 1.992 0 0 1-.842.184l-.055-.001h.003-1.131v-2.913h1.132l.053-.001c.305 0 .594.066.854.185l-.013-.005c.243.113.444.29.575.508a1.575 1.575 0 0 1 0 1.529zm-.727-.069c.181-.194.281-.44.281-.696a1.01 1.01 0 0 0-.281-.695 1.163 1.163 0 0 0-.724-.25l-.076.002h.003-.441v1.886h.441l.073.002c.274 0 .526-.094.725-.252l-.002.002zM19.226 3.338s8.206 2.837 8.032 6.942v6.943s-8.2-2.838-8.03-6.943l-.003-6.942zm15.343 12.259a11.914 11.914 0 0 1 5.214-1.759v-2.174c-2.156.761-3.986 2.141-5.214 3.933z"/><path d="M33.639 16.252c1.268-2.339 3.467-4.144 6.145-5.043V4.946s-11.687 4.041-11.44 9.887v9.885s.521-.181 1.34-.52c0-.316 0-.635.038-.955.241-2.713 1.65-5.228 3.917-6.991z"/><path  d="M32.527 19.925a9.43 9.43 0 0 1 .427-2.091l-.019.067c-1.411 1.522-2.266 3.412-2.443 5.402a8.831 8.831 0 0 0-.032.569 32.218 32.218 0 0 0 2.436-1.177l-.188.092a9.404 9.404 0 0 1-.182-2.863zm.465.035a8.995 8.995 0 0 0 .155 2.65l-.01-.058c3.193-1.75 6.781-4.453 6.642-7.719v-.285c-2.281.234-4.416 1.147-6.075 2.599a8.85 8.85 0 0 0-.709 2.778l-.003.035z"/></symbol><symbol id="Client6" viewBox="0 0 50 32"><path d="M25.141 13.051a1.38 1.38 0 0 1-.285-.94v.004-1.357c0-.416.094-.732.283-.948s.512-.324.972-.323c.432 0 .738.092.919.276.198.235.294.522.272.811v.319h-.772v-.323a1.67 1.67 0 0 0-.023-.316.302.302 0 0 0-.11-.187h-.001a.446.446 0 0 0-.246-.074l-.035.001h.002l-.033-.001a.47.47 0 0 0-.262.079l.002-.001a.362.362 0 0 0-.128.205v.002c-.02.093-.031.2-.031.309v.028-.001 1.647a.842.842 0 0 0 .099.462c.04.05.092.088.152.111l.002.001a.417.417 0 0 0 .202.025h-.002l.033.001c.09 0 .173-.028.242-.076l-.001.001a.332.332 0 0 0 .115-.198v-.002c.018-.109.026-.22.024-.33v-.334h.772v.305a1.24 1.24 0 0 1-.268.856l.002-.002c-.177.201-.48.302-.924.302s-.78-.108-.97-.331zm3.215.014c-.195-.212-.293-.519-.293-.926v-1.427c0-.403.097-.708.293-.915s.521-.31.978-.309c.454 0 .778.104.974.309.195.207.294.512.294.915v1.427c0 .403-.099.712-.297.925s-.521.319-.97.319-.782-.108-.979-.317zm1.338-.342a.794.794 0 0 0 .093-.422v-1.747l.001-.047a.774.774 0 0 0-.094-.371l.002.004a.363.363 0 0 0-.155-.113l-.003-.001a.41.41 0 0 0-.206-.025h.002a.428.428 0 0 0-.207.026l.003-.001a.37.37 0 0 0-.158.113l-.001.001a.757.757 0 0 0-.093.414v1.755a.79.79 0 0 0 .093.423.529.529 0 0 0 .563.102l-.004.001a.474.474 0 0 0 .163-.104v-.008zm1.837-3.194h.831l.625 2.633.64-2.633h.808l.082 3.8h-.598l-.064-2.641-.617 2.641h-.48l-.639-2.651-.059 2.651h-.604l.075-3.8zm3.918 0h1.295c.746 0 1.119.36 1.119 1.079 0 .689-.393 1.033-1.178 1.032h-.441v1.689h-.8l.005-3.801zm1.107 1.624c.079.009.159.002.235-.018s.146-.056.204-.102a.613.613 0 0 0 .115-.429l.001-.042c0-.108-.014-.212-.041-.312l.002.008a.3.3 0 0 0-.059-.105.317.317 0 0 0-.099-.075l-.002-.001a.819.819 0 0 0-.315-.062l-.044.001h.002-.31v1.136h.311zm2.46-1.624h.858l.881 3.8h-.745l-.174-.876h-.766l-.179.876h-.756l.88-3.8zm.734 2.485-.299-1.595-.299 1.595h.598zm1.717-2.485h.56l1.071 2.168V9.529h.664v3.8h-.532l-1.078-2.264v2.264h-.686l.001-3.8zm3.848 2.352-.89-2.346h.75l.544 1.507.51-1.507h.734l-.88 2.346v1.449h-.767v-1.449zm-18.939 3.111v.199h-.652v1.544h-.273v-1.544h-.656v-.199h1.581zm2.044 1.743h-.217a.091.091 0 0 1-.054-.017.101.101 0 0 1-.035-.039v-.001l-.189-.414h-.905l-.188.414a.113.113 0 0 1-.029.047.099.099 0 0 1-.054.017h-.216l.8-1.743h.278l.809 1.736zm-1.324-.647h.754l-.32-.71a1.374 1.374 0 0 1-.057-.155l-.002-.009-.03.093-.029.073-.316.708zm2.702.476a.923.923 0 0 0 .279-.021.888.888 0 0 0 .115-.032l.107-.043v-.392h-.324a.064.064 0 0 1-.02-.003.064.064 0 0 1-.02-.011.04.04 0 0 1-.012-.014c-.002-.005-.004-.01-.004-.016v-.136h.62v.668a1.17 1.17 0 0 1-.329.14l-.008.002a1.675 1.675 0 0 1-.429.047h-.015c-.141 0-.276-.024-.402-.068l.009.003a.992.992 0 0 1-.321-.183l.001.001a.846.846 0 0 1-.204-.271l-.002-.005a.862.862 0 0 1-.073-.35v-.012.001-.011c0-.128.026-.249.074-.359l-.002.006a.788.788 0 0 1 .206-.276.96.96 0 0 1 .32-.181c.136-.045.282-.067.428-.065.074 0 .149.005.222.015a1.093 1.093 0 0 1 .35.113c.049.027.096.057.139.091l-.077.108a.058.058 0 0 1-.026.023.075.075 0 0 1-.037.009.12.12 0 0 1-.05-.014.896.896 0 0 1-.083-.044l.005.002a.64.64 0 0 0-.102-.046l-.005-.002a.956.956 0 0 0-.141-.038l-.006-.001a1.15 1.15 0 0 0-.192-.015h-.012.001-.01a.967.967 0 0 0-.306.05l.007-.002a.617.617 0 0 0-.382.35l-.001.004a.828.828 0 0 0 .001.587l-.002-.006a.673.673 0 0 0 .393.358c.102.03.209.042.317.034zm2.548-.028h.873v.199H32.08v-1.743h.273l-.006 1.544zm1.781.199h-.273v-1.743h.273v1.743zM35.144 15c.016.008.03.019.042.032l1.168 1.314-.001-.031.001-.032v.001-1.299h.238v1.751H36.446a.126.126 0 0 1-.051-.011h.001a.159.159 0 0 1-.043-.033l-1.167-1.313v1.355h-.229v-1.743h.142c.016 0 .031.003.045.008zm3.461-.008v.192h-.968v.576h.785v.185h-.785v.595h.968v.192h-1.25v-1.739h1.25zM9.959 4.227l12.139 2.976V17.63L9.959 14.656V4.227zm-.779-.89v11.825l13.694 3.358V6.696L9.18 3.337z"/><path d="m16.52 24.008-13.696-3.36V8.825l13.696 3.36v11.824z"/><path d="m9.407 4.093 11.98 2.938-5.095 4.4L4.31 8.491l5.096-4.399zm-.227-.755L2.824 8.825l13.696 3.36 6.355-5.488L9.181 3.338zm8.11 20.006 5.584-4.822-5.584-1.371v6.193z"/></symbol><symbol id="clock" viewBox="0 0 32 32"><path fill="#212121" style="fill:var(--color1, #212121)" d="M31.296 15.301C31.295 6.849 24.441-.002 15.988 0S.685 6.855.687 15.308c.002 6.788 4.422 12.543 10.541 14.545l.108.031a.667.667 0 0 0 .529-.065.636.636 0 0 0 .283-.357l3.865-12.25a1.913 1.913 0 1 0-.852-3.63l.011-.005-5.106-5.107a.638.638 0 0 0-.902.902l5.103 5.109a1.847 1.847 0 0 0-.191.826c0 .602.283 1.137.723 1.48l.004.003-3.682 11.673C3.843 25.782.117 17.709 2.797 10.431S13.551-.573 20.829 2.108c7.278 2.681 11.004 10.754 8.323 18.032-1.345 3.581-4.003 6.406-7.374 7.938l-.088.036-.398-1.874a.639.639 0 0 0-1.05-.343l.001-.001-3.837 3.426a.637.637 0 0 0 .227 1.083l.005.001 4.899 1.563a.637.637 0 0 0 .818-.744l.001.004-.391-1.839c5.528-2.374 9.329-7.772 9.329-14.057v-.034.002zm-15.304-.637a.638.638 0 0 1 0 1.276.638.638 0 0 1 0-1.276zm2.1 14.864 2.184-1.948.603 2.84-2.787-.892z"/><path fill="#2196f3" style="fill:var(--color2, #2196f3)" d="M15.354 3.185V4.46a.638.638 0 0 0 1.276 0V3.185a.638.638 0 1 0-1.276 0zM3.876 14.664a.638.638 0 0 0 0 1.276h1.275a.638.638 0 0 0 0-1.276H3.876zm24.232 1.275a.638.638 0 0 0 0-1.276h-1.275a.638.638 0 0 0 0 1.276h1.275z"/></symbol><symbol id="diagram" viewBox="0 0 32 32"><path fill="#2196f3" style="fill:var(--color2, #2196f3)" d="M14.926 14.965h1.066v4.798h-1.066v-4.798zm4.264 2.132h1.066v2.665H19.19v-2.665zm-8.529 1.599h1.066v1.066h-1.066v-1.066zm-3.198-.533h1.066v1.599H7.463v-1.599z"/><path fill="#212121" style="fill:var(--color1, #212121)" d="M1.599 28.291h25.586a1.6 1.6 0 0 0 1.599-1.599V24.56a1.6 1.6 0 0 0-1.599-1.599h-.533V9.667l3.028-2.868a1.608 1.608 0 1 0-.742-.752l-.004-.01-2.281 2.162v-1.23a1.6 1.6 0 0 0-1.599-1.599H3.731a1.6 1.6 0 0 0-1.599 1.599v15.992h-.533A1.6 1.6 0 0 0 0 24.56v2.132a1.6 1.6 0 0 0 1.599 1.599zM30.384 4.837a.533.533 0 0 1 0 1.066.533.533 0 0 1 0-1.066zM3.198 6.969c0-.294.239-.533.533-.533h21.323c.294 0 .533.239.533.533v2.239l-1.066 1.013V8.036a.534.534 0 0 0-.534-.534H4.798a.534.534 0 0 0-.534.533v13.327c0 .294.239.533.534.533h19.189a.534.534 0 0 0 .534-.533v-9.675l1.066-1.01V22.96H3.198V6.969zm4.798 6.93h-.005a1.6 1.6 0 1 0 1.112 2.748l1.853.93a.535.535 0 0 0 .636-.122l3.939-4.432 3.872 2.902a.534.534 0 0 0 .686-.039l3.365-3.188v8.131H5.331V8.568h18.123v2.661l-3.771 3.572-3.904-2.927a.534.534 0 0 0-.718.071v.001l-3.993 4.493-1.493-.746c.011-.064.017-.128.02-.193a1.6 1.6 0 0 0-1.599-1.599zm.533 1.599a.533.533 0 0 1-1.066 0 .533.533 0 0 1 1.066 0zm3.198 8.528h5.33v.533a.533.533 0 0 1-.533.533h-4.265a.533.533 0 0 1-.533-.533v-.533zm-10.66.534c0-.294.238-.533.533-.533h9.062v.533a1.6 1.6 0 0 0 1.599 1.599h4.265a1.6 1.6 0 0 0 1.599-1.599v-.533h9.062c.294 0 .533.239.533.533v2.132a.533.533 0 0 1-.533.533H1.601a.533.533 0 0 1-.533-.533V24.56z"/></symbol><symbol id="envelope" viewBox="0 0 43 32"><path d="M38.667 0H4C1.795 0 0 1.795 0 4v24c0 2.205 1.795 4 4 4h34.667c2.205 0 4-1.795 4-4V4c0-2.205-1.795-4-4-4zm0 2.667c.181 0 .355.037.512.104L21.334 18.238 3.489 2.771c.151-.065.327-.104.512-.104h34.667zm0 26.666H4A1.333 1.333 0 0 1 2.667 28V5.587l17.792 15.421c.233.203.539.327.875.327s.642-.124.876-.328l-.002.001L40 5.587V28c0 .736-.597 1.333-1.333 1.333z"/></symbol><symbol id="facebook" viewBox="0 0 32 32"><path d="M21.328 5.312h2.923V.224A36.478 36.478 0 0 0 20.144 0h-.157.008c-4.213 0-7.099 2.65-7.099 7.52V12H8.25v5.688h4.646V32h5.699V17.69h4.459l.709-5.688h-5.17V8.08c0-1.643.443-2.768 2.734-2.768z"/></symbol><symbol id="instagram" viewBox="0 0 32 32"><path  d="M31.968 9.408c-.074-1.701-.349-2.869-.742-3.882a7.839 7.839 0 0 0-1.85-2.837l-.001-.001A7.906 7.906 0 0 0 26.597.861l-.054-.018C25.524.449 24.362.176 22.661.101 20.949.019 20.405 0 16.059 0c-4.344 0-4.888.019-6.595.094-1.699.074-2.869.349-3.88.742a7.847 7.847 0 0 0-2.839 1.85l-.001.001A7.9 7.9 0 0 0 .919 5.465l-.018.054C.506 6.538.232 7.7.157 9.401c-.082 1.712-.101 2.256-.101 6.602 0 4.344.019 4.888.094 6.595.075 1.701.35 2.869.744 3.882a7.915 7.915 0 0 0 1.849 2.837l.001.001c.8.813 1.77 1.443 2.832 1.843 1.019.395 2.182.67 3.882.744 1.707.075 2.251.094 6.595.094 4.346 0 4.89-.019 6.595-.094 1.701-.074 2.869-.349 3.882-.742a8.237 8.237 0 0 0 4.664-4.628l.019-.055c.394-1.019.669-2.182.744-3.882.075-1.707.093-2.251.093-6.595s-.006-4.888-.08-6.595zm-2.88 13.066c-.07 1.563-.333 2.406-.55 2.97a5.341 5.341 0 0 1-3.004 3.024l-.036.012c-.56.219-1.411.482-2.968.55-1.688.075-2.194.094-6.464.094-4.269 0-4.782-.019-6.464-.094-1.563-.069-2.406-.331-2.97-.55a4.953 4.953 0 0 1-1.836-1.192l-.001-.001a4.978 4.978 0 0 1-1.184-1.803L3.6 25.45c-.218-.563-.48-1.413-.549-2.97-.075-1.688-.094-2.195-.094-6.464 0-4.27.019-4.784.094-6.464.069-1.563.331-2.406.549-2.97a4.897 4.897 0 0 1 1.198-1.837l.002-.002a4.972 4.972 0 0 1 1.806-1.182l.034-.011c.56-.219 1.411-.48 2.968-.55 1.688-.074 2.195-.093 6.464-.093 4.275 0 4.782.019 6.464.093 1.563.069 2.406.331 2.97.55a4.91 4.91 0 0 1 1.837 1.194c.531.52.938 1.144 1.195 1.84.218.56.48 1.411.549 2.968.075 1.688.094 2.194.094 6.464 0 4.269-.019 4.768-.094 6.458z"/><path  d="M16.059 7.782a8.223 8.223 0 0 0-8.219 8.221 8.223 8.223 0 0 0 16.442.008v-.009a8.223 8.223 0 0 0-8.221-8.221zm0 13.552a5.333 5.333 0 0 1 .001-10.666h.001a5.334 5.334 0 1 1 0 10.668zM26.525 7.458a1.92 1.92 0 0 1-3.84 0 1.92 1.92 0 0 1 3.84 0z"/></symbol><symbol id="linkedin" viewBox="0 0 32 32"><path  d="M31.992 32H32V20.262c0-5.741-1.235-10.163-7.947-10.163-3.227 0-5.392 1.77-6.277 3.45h-.093v-2.914h-6.365v21.363h6.627V21.42c0-2.786.528-5.48 3.978-5.48 3.398 0 3.45 3.179 3.45 5.658V32h6.619zM.528 10.635h6.635V32H.528V10.635zM3.843 0A3.843 3.843 0 0 0 0 3.843c0 2.12 1.722 3.878 3.843 3.878 2.12 0 3.842-1.757 3.842-3.878S5.965.002 3.844 0z"/></symbol><symbol id="smartphone" viewBox="0 0 20 32"><path  d="M17 0H3C1.346 0 0 1.346 0 3v26c0 1.654 1.346 3 3 3h14c1.654 0 3-1.346 3-3V3c0-1.654-1.346-3-3-3zM3 2h14a1 1 0 0 1 1 1v21H2V3a1 1 0 0 1 1-1zm14 28H3a1 1 0 0 1-1-1v-3h16v3a1 1 0 0 1-1 1z"/><path  d="M4.708 27.478a.889.889 0 0 1 .001 1.319l-.001.001a1.048 1.048 0 0 1-1.417 0l.001.001a.889.889 0 0 1-.001-1.319l.001-.001a1.048 1.048 0 0 1 1.417 0l-.001-.001z"/></symbol><symbol id="twitter" viewBox="0 0 32 32"><path  d="M32 6.078c-1.1.493-2.376.857-3.713 1.028l-.068.007a6.556 6.556 0 0 0 2.873-3.579l.013-.046a12.88 12.88 0 0 1-4.076 1.573l-.084.014A6.558 6.558 0 0 0 15.6 9.557v.004c0 .52.043 1.021.152 1.496-5.454-.266-10.28-2.88-13.522-6.861a6.524 6.524 0 0 0-.902 3.313v.001a6.57 6.57 0 0 0 2.914 5.451 6.453 6.453 0 0 1-2.994-.823l.033.017v.072a6.592 6.592 0 0 0 5.213 6.44l.043.008a6.403 6.403 0 0 1-1.662.215h-.061.003c-.419 0-.843-.024-1.242-.112.85 2.598 3.261 4.509 6.13 4.57a13.093 13.093 0 0 1-8.122 2.8H1.57h.001-.062c-.531 0-1.055-.034-1.569-.099l.061.006c2.826 1.846 6.287 2.944 10.004 2.944h.063-.003c12.072 0 18.672-10 18.672-18.669 0-.288-.01-.57-.024-.848a13.203 13.203 0 0 0 3.258-3.355l.03-.047z"/></symbol>

<symbol id="close" viewBox="0 0 32 32"><path d="m26.667 7.303-1.97-1.97-7.808 7.808-7.808-7.808-1.97 1.97 7.808 7.808-7.808 7.808 1.97 1.97 7.808-7.808 7.808 7.808 1.97-1.97-7.808-7.808 7.808-7.808z"/></symbol>
<symbol id="icon-icon-send" viewBox="0 0 32 32">
<path fill="#fff" style="fill: var(--color1, #fff)" d="M32 0l-32 18 10.227 3.787 15.773-14.787-11.997 16.187 0.009 0.003-0.012-0.003v8.813l5.735-6.691 7.267 2.691 4.999-28z"></path>
</symbol>
<symbol id="icon-person-black" viewBox="0 0 32 32">
<path d="M16 16c2.946 0 5.333-2.388 5.333-5.333s-2.388-5.333-5.333-5.333v0c-2.946 0-5.333 2.388-5.333 5.333s2.388 5.333 5.333 5.333v0zM16 18.667c-3.561 0-10.667 1.787-10.667 5.333v1.333c0 0.732 0.599 1.333 1.333 1.333h18.667c0.732 0 1.333-0.601 1.333-1.333v-1.333c0-3.547-7.108-5.333-10.667-5.333z"></path>
</symbol>
<symbol id="icon-icon-modal" viewBox="0 0 34 32">
<path d="M30.34 3.556v24.887h-26.547v-24.887h26.547zM30.34 0h-26.547c-2.086 0-3.793 1.6-3.793 3.556v24.887c0 1.956 1.707 3.556 3.793 3.556h26.547c2.086 0 3.793-1.6 3.793-3.556v-24.887c0-1.956-1.707-3.556-3.793-3.556z"></path>
</symbol>
<symbol id="icon-phone-black" viewBox="0 0 32 32">
<path d="M24.882 19.774l-3.268-0.373c-0.090-0.011-0.194-0.018-0.3-0.018-0.707 0-1.347 0.287-1.81 0.75l-2.368 2.368c-3.669-1.894-6.585-4.81-8.427-8.372l-0.051-0.108 2.382-2.377c0.463-0.463 0.75-1.103 0.75-1.81 0-0.106-0.006-0.21-0.019-0.312l0.001 0.012-0.373-3.243c-0.155-1.287-1.24-2.276-2.557-2.276-0.001 0-0.002 0-0.003 0h-2.226c-1.454 0-2.663 1.209-2.574 2.661 0.683 10.987 9.47 19.762 20.444 20.444 1.452 0.089 2.663-1.12 2.663-2.574v-2.226c0-0.004 0-0.008 0-0.012 0-1.308-0.985-2.386-2.253-2.532l-0.012-0.001z"></path>
</symbol>
<symbol id="icon-email-black" viewBox="0 0 32 32">
<path d="M26.667 5.333h-21.333c-1.467 0-2.652 1.2-2.652 2.667l-0.014 16c0 1.467 1.2 2.667 2.667 2.667h21.333c1.467 0 2.667-1.2 2.667-2.667v-16c0-1.467-1.2-2.667-2.667-2.667zM26.133 11.001l-9.426 5.892c-0.201 0.126-0.446 0.2-0.708 0.2s-0.506-0.075-0.713-0.204l0.006 0.003-9.426-5.892c-0.336-0.201-0.557-0.562-0.557-0.975 0-0.625 0.507-1.132 1.132-1.132 0.233 0 0.449 0.070 0.629 0.19l-0.004-0.003 8.933 5.586 8.933-5.588c0.176-0.118 0.392-0.188 0.624-0.188 0.625 0 1.132 0.507 1.132 1.132 0 0.413-0.221 0.775-0.552 0.972l-0.005 0.003z"></path>
</symbol>

<symbol id="icon-chekin" viewBox="0 0 42 32">
<path d="M6.262 15.206l-0.221-0.211-0.221 0.208-3.085 2.925 0.243 0.234 11.408 10.88 0.221-0.211 24.256-23.139-0.243-0.23-3.043-2.902-0.221 0.211-20.97 19.987-8.125-7.75z"></path>
</symbol>

<symbol id="icon-menu" viewBox="0 0 32 32">
<path d="M6.4 11.734v-2.134h19.2v2.134h-19.2zM6.4 17.066h19.2v-2.133h-19.2v2.133zM6.4 22.4h19.2v-2.134h-19.2v2.134z"></path>
</symbol>

<symbol id="icon-menu_close" viewBox="0 0 32 32">
<path d="M23.734 10.304l-1.504-1.504-5.963 5.962-5.962-5.962-1.504 1.504 5.962 5.962-5.962 5.963 1.504 1.504 5.962-5.963 5.963 5.963 1.504-1.504-5.963-5.963 5.963-5.962z"></path>
</symbol>

</defs></svg>


